<svg width="415" height="227" viewBox="0 0 415 227" fill="none" xmlns="http://www.w3.org/2000/svg">
<path d="M342.8 1H41.2L1 226H370.6L383.8 151.4H401.2L413.8 76.2H327.6L342.8 1Z" fill="#E80024" stroke="black" stroke-width="0.4"/>
<path d="M78.8665 29.114C78.8665 26.5498 78.1031 24.563 76.5763 23.1536C75.0495 21.7247 73.1606 21.0103 70.9096 21.0103C68.1496 21.0103 65.879 21.6856 64.0977 23.0362C62.3361 24.3868 60.9365 26.0408 59.8991 27.9983C58.8812 29.9361 58.1765 32.011 57.785 34.2229C57.3936 36.4152 57.1978 38.3628 57.1978 40.0658C57.1978 41.573 57.374 42.9921 57.7263 44.3232C58.0982 45.6542 58.6855 46.8189 59.488 47.8172C60.3101 48.8154 61.3671 49.6082 62.659 50.1954C63.9705 50.7826 65.556 51.0763 67.4156 51.0763C69.6666 51.0763 71.7121 50.4792 73.5521 49.2852C75.3921 48.0716 76.6742 45.9967 77.3984 43.0606H86.5592C85.3455 48.0325 83.1043 51.918 79.8354 54.7171C76.5861 57.4966 72.3287 58.8864 67.0632 58.8864C63.4811 58.8864 60.4765 58.2796 58.0493 57.066C55.6417 55.8328 53.7038 54.2766 52.2358 52.3975C50.7677 50.4988 49.7205 48.424 49.0941 46.1729C48.4873 43.9023 48.1839 41.7296 48.1839 39.6547C48.1839 36.562 48.6439 33.4692 49.5639 30.3765C50.5034 27.2642 51.9226 24.4651 53.8213 21.9792C55.7395 19.4933 58.1374 17.4673 61.0148 15.9014C63.9118 14.3355 67.3079 13.5525 71.2032 13.5525C73.65 13.5525 75.8912 13.8852 77.9269 14.5508C79.9822 15.2163 81.7439 16.2048 83.212 17.5163C84.68 18.8277 85.8251 20.4524 86.6472 22.3902C87.4694 24.3281 87.8804 26.5693 87.8804 29.114H78.8665ZM121.176 14.6389L126.637 57.8H117.741L116.948 49.3146H101.739L97.599 57.8H88.0272L110.635 14.6389H121.176ZM116.243 41.8568L114.482 23.6528H114.364L105.409 41.8568H116.243ZM154.912 57.8H146.897L144.43 20.8928H144.313L138.47 57.8H130.073L137.648 14.6389H150.802L152.622 46.6133H152.74L165.952 14.6389H179.546L171.736 57.8H163.31L170.474 20.8928H170.356L154.912 57.8ZM201.567 31.6391C206.676 31.6391 210.376 32.7156 212.666 34.8688C214.956 37.022 216.101 39.8504 216.101 43.3542C216.101 44.3134 215.945 45.6151 215.632 47.2593C215.338 48.8839 214.653 50.4792 213.576 52.0452C212.5 53.5915 210.914 54.9422 208.82 56.097C206.725 57.2324 203.887 57.8 200.305 57.8H179.781L187.621 14.6389H196.635L193.552 31.6391H201.567ZM226.936 14.6389H235.95L228.139 57.8H219.126L226.936 14.6389ZM207.087 43.5598C207.087 41.7198 206.51 40.4572 205.355 39.7721C204.22 39.087 202.732 38.7445 200.892 38.7445H192.231L190.146 50.3422H198.367C201.127 50.3422 203.27 49.8333 204.797 48.8154C206.324 47.7976 207.087 46.0457 207.087 43.5598ZM268.159 50.3422L266.838 57.8H236.948L244.758 14.6389H273.444L272.123 22.0673H252.274L250.601 31.6391H268.805L267.484 39.0968H249.338L247.342 50.3422H268.159Z" fill="white"/>
<path d="M85.4141 120.154C85.4141 121.113 85.2575 122.415 84.9443 124.059C84.6507 125.684 83.9656 127.279 82.889 128.845C81.8124 130.392 80.2269 131.742 78.1324 132.897C76.038 134.032 73.19 134.6 69.5883 134.6H46.5103L54.3204 91.4388H84.0928L82.7715 98.8673H61.8956L60.1633 108.439H70.8508C75.9597 108.439 79.6592 109.516 81.9494 111.669C84.2592 113.822 85.4141 116.65 85.4141 120.154ZM76.4001 120.36C76.4001 118.52 75.8227 117.257 74.6678 116.572C73.5325 115.887 72.0449 115.544 70.2049 115.544H58.8421L56.728 127.142H67.6798C70.4202 127.142 72.5538 126.633 74.0806 125.615C75.6269 124.598 76.4001 122.846 76.4001 120.36ZM111.369 108.439C116.478 108.439 120.178 109.516 122.468 111.669C124.758 113.822 125.903 116.65 125.903 120.154C125.903 121.113 125.747 122.415 125.434 124.059C125.14 125.684 124.455 127.279 123.378 128.845C122.302 130.392 120.716 131.742 118.622 132.897C116.527 134.032 113.689 134.6 110.107 134.6H89.5834L97.4228 91.4388H106.437L103.354 108.439H111.369ZM136.738 91.4388H145.752L137.941 134.6H128.928L136.738 91.4388ZM116.889 120.36C116.889 118.52 116.312 117.257 115.157 116.572C114.022 115.887 112.534 115.544 110.694 115.544H102.033L99.9479 127.142H108.169C110.929 127.142 113.072 126.633 114.599 125.615C116.126 124.598 116.889 122.846 116.889 120.36ZM179.106 105.914C179.106 103.35 178.343 101.363 176.816 99.9536C175.289 98.5247 173.4 97.8103 171.149 97.8103C168.389 97.8103 166.119 98.4856 164.337 99.8362C162.576 101.187 161.176 102.841 160.139 104.798C159.121 106.736 158.416 108.811 158.025 111.023C157.633 113.215 157.437 115.163 157.437 116.866C157.437 118.373 157.614 119.792 157.966 121.123C158.338 122.454 158.925 123.619 159.728 124.617C160.55 125.615 161.607 126.408 162.899 126.995C164.21 127.583 165.796 127.876 167.655 127.876C169.906 127.876 171.952 127.279 173.792 126.085C175.632 124.872 176.914 122.797 177.638 119.861H186.799C185.585 124.832 183.344 128.718 180.075 131.517C176.826 134.297 172.568 135.686 167.303 135.686C163.721 135.686 160.716 135.08 158.289 133.866C155.881 132.633 153.943 131.077 152.475 129.198C151.007 127.299 149.96 125.224 149.334 122.973C148.727 120.702 148.423 118.53 148.423 116.455C148.423 113.362 148.883 110.269 149.803 107.177C150.743 104.064 152.162 101.265 154.061 98.7792C155.979 96.2933 158.377 94.2673 161.254 92.7014C164.151 91.1354 167.547 90.3525 171.443 90.3525C173.89 90.3525 176.131 90.6852 178.166 91.3508C180.222 92.0163 181.983 93.0048 183.452 94.3163C184.92 95.6277 186.065 97.2524 186.887 99.1902C187.709 101.128 188.12 103.369 188.12 105.914H179.106ZM194.286 91.4388H224.88L223.5 98.8673H213.341L206.853 134.6H197.839L204.327 98.8673H192.906L194.286 91.4388ZM235.392 119.567L232.69 134.6H223.677L231.487 91.4388H246.344C249.143 91.4388 251.501 91.7814 253.42 92.4665C255.357 93.132 256.923 94.0422 258.117 95.1971C259.331 96.3324 260.202 97.6537 260.731 99.1609C261.279 100.649 261.553 102.214 261.553 103.859C261.553 108.772 260.094 112.618 257.178 115.398C254.261 118.177 249.886 119.567 244.053 119.567H235.392ZM244.787 112.109C247.645 112.109 249.71 111.395 250.983 109.966C252.255 108.517 252.891 106.785 252.891 104.769C252.891 103.144 252.47 101.754 251.629 100.6C250.787 99.4447 249.162 98.8673 246.755 98.8673H239.179L236.772 112.109H244.787ZM285.189 108.439C290.297 108.439 293.997 109.516 296.287 111.669C298.577 113.822 299.722 116.65 299.722 120.154C299.722 121.113 299.566 122.415 299.253 124.059C298.959 125.684 298.274 127.279 297.197 128.845C296.121 130.392 294.535 131.742 292.441 132.897C290.346 134.032 287.508 134.6 283.926 134.6H263.402L271.242 91.4388H280.256L277.173 108.439H285.189ZM310.557 91.4388H319.571L311.761 134.6H302.747L310.557 91.4388ZM290.708 120.36C290.708 118.52 290.131 117.257 288.976 116.572C287.841 115.887 286.353 115.544 284.513 115.544H275.852L273.767 127.142H281.988C284.748 127.142 286.891 126.633 288.418 125.615C289.945 124.598 290.708 122.846 290.708 120.36ZM351.78 127.142L350.459 134.6H320.569L328.379 91.4388H357.065L355.744 98.8673H335.896L334.222 108.439H352.426L351.105 115.897H332.959L330.963 127.142H351.78Z" fill="white"/>
<path d="M84.3277 197.688C84.3277 202.053 82.9477 205.43 80.1877 207.818C77.4278 210.206 73.4346 211.4 68.2083 211.4H46.5103L54.3204 168.239H71.2032C73.9436 168.239 76.2631 168.493 78.1618 169.002C80.0605 169.511 81.6069 170.255 82.8009 171.234C83.9949 172.193 84.8562 173.367 85.3847 174.757C85.9132 176.147 86.1775 177.723 86.1775 179.484C86.1775 181.716 85.6098 183.712 84.4745 185.474C83.3392 187.216 81.5482 188.498 79.1014 189.32C80.726 190.201 81.9984 191.287 82.9183 192.579C83.8579 193.852 84.3277 195.555 84.3277 197.688ZM75.3138 197.571C75.3138 195.731 74.7265 194.4 73.5521 193.578C72.3776 192.756 70.8411 192.344 68.9424 192.344H58.9595L56.8455 203.942H67.9147C69.2849 203.942 70.4398 203.737 71.3793 203.326C72.3189 202.915 73.0823 202.396 73.6695 201.769C74.2568 201.143 74.6776 200.458 74.9321 199.714C75.1865 198.951 75.3138 198.236 75.3138 197.571ZM70.6159 185.239C74.981 185.239 77.1635 183.419 77.1635 179.778C77.1635 178.173 76.6252 177.086 75.5487 176.519C74.4916 175.951 73.1704 175.667 71.5849 175.667H61.9544L60.222 185.239H70.6159ZM111.369 185.239C116.478 185.239 120.178 186.316 122.468 188.469C124.758 190.622 125.903 193.45 125.903 196.954C125.903 197.913 125.747 199.215 125.434 200.859C125.14 202.484 124.455 204.079 123.378 205.645C122.302 207.192 120.716 208.542 118.622 209.697C116.527 210.832 113.689 211.4 110.107 211.4H89.5834L97.4228 168.239H106.437L103.354 185.239H111.369ZM136.738 168.239H145.752L137.941 211.4H128.928L136.738 168.239ZM116.889 197.16C116.889 195.32 116.312 194.057 115.157 193.372C114.022 192.687 112.534 192.344 110.694 192.344H102.033L99.9479 203.942H108.169C110.929 203.942 113.072 203.433 114.599 202.415C116.126 201.398 116.889 199.646 116.889 197.16ZM154.56 168.239H189.559L181.749 211.4H172.705L179.224 175.667H162.253L155.764 211.4H146.75L154.56 168.239ZM206.06 198.041C205.551 200.272 204.954 202.288 204.269 204.089C203.603 205.87 202.761 207.387 201.744 208.64C200.745 209.873 199.532 210.823 198.103 211.488C196.693 212.154 195 212.486 193.023 212.486C192.025 212.486 191.105 212.398 190.263 212.222C189.422 212.066 188.521 211.791 187.562 211.4L188.825 203.649C189.431 203.864 190.019 204.021 190.586 204.118C191.174 204.197 191.604 204.236 191.878 204.236C192.544 204.236 193.121 204.167 193.611 204.03C194.119 203.874 194.609 203.423 195.079 202.68C195.568 201.916 196.057 200.752 196.547 199.186C197.056 197.6 197.643 195.378 198.308 192.521L203.916 168.239H233.924L226.084 211.4H217.07L223.559 175.667H211.11L206.06 198.041ZM265.751 168.239L271.213 211.4H262.316L261.523 202.915H246.314L242.174 211.4H232.602L255.211 168.239H265.751ZM260.819 195.457L259.057 177.253H258.94L249.984 195.457H260.819ZM278.729 168.239H309.324L307.944 175.667H297.785L291.296 211.4H282.282L288.771 175.667H277.349L278.729 168.239ZM329.524 185.239C334.633 185.239 338.333 186.316 340.623 188.469C342.913 190.622 344.058 193.45 344.058 196.954C344.058 197.913 343.901 199.215 343.588 200.859C343.295 202.484 342.61 204.079 341.533 205.645C340.456 207.192 338.871 208.542 336.776 209.697C334.682 210.832 331.844 211.4 328.262 211.4H307.738L315.578 168.239H324.591L321.509 185.239H329.524ZM354.892 168.239H363.906L356.096 211.4H347.082L354.892 168.239ZM335.044 197.16C335.044 195.32 334.467 194.057 333.312 193.372C332.176 192.687 330.689 192.344 328.849 192.344H320.187L318.103 203.942H326.324C329.084 203.942 331.227 203.433 332.754 202.415C334.281 201.398 335.044 199.646 335.044 197.16Z" fill="white"/>
</svg>
