<svg width="503" height="137" viewBox="0 0 503 137" fill="none" xmlns="http://www.w3.org/2000/svg">
<rect width="502.4" height="136.8" rx="13.6" fill="#E80024"/>
<path d="M121.574 72.5322C120.16 73.082 118.558 73.357 116.766 73.357H108.848V85.8H101.613V51.1574H117.356C119.194 51.1574 120.788 51.4088 122.14 51.9116C123.506 52.4143 124.638 53.1449 125.533 54.1032C126.429 55.0616 127.096 56.2242 127.536 57.5911C127.976 58.9579 128.196 60.5133 128.196 62.2572C128.196 63.8754 127.937 65.368 127.418 66.7348C126.9 68.086 126.146 69.2564 125.156 70.2462C124.182 71.2203 122.988 71.9823 121.574 72.5322ZM108.848 67.3711H115.706C117.34 67.3711 118.62 66.9705 119.547 66.1692C120.49 65.368 120.961 64.064 120.961 62.2572C120.961 61.346 120.836 60.5683 120.584 59.9241C120.349 59.28 120.003 58.7537 119.547 58.3452C119.107 57.921 118.558 57.6146 117.898 57.4261C117.254 57.2219 116.523 57.1197 115.706 57.1197H108.848V67.3711ZM138.66 85.8236C137.151 85.3052 135.832 84.496 134.701 83.3963C133.585 82.2808 132.705 80.8432 132.061 79.0836C131.417 77.324 131.095 75.1873 131.095 72.6736C131.095 70.9296 131.323 69.2564 131.778 67.6539C132.25 66.0357 132.972 64.6138 133.946 63.3884C134.936 62.1629 136.193 61.1889 137.717 60.4662C139.257 59.7277 141.103 59.3585 143.255 59.3585C145.533 59.3585 147.45 59.7356 149.005 60.4897C150.561 61.2281 151.81 62.2808 152.752 63.6476C153.711 65.0145 154.394 66.6641 154.803 68.5966C155.211 70.529 155.415 72.6736 155.415 75.0302H137.811C137.811 75.2659 137.835 75.5801 137.882 75.9729C137.929 76.3656 138.023 76.7898 138.165 77.2454C138.306 77.7011 138.51 78.1645 138.777 78.6359C139.045 79.0915 139.398 79.5078 139.838 79.8849C140.294 80.2619 140.843 80.5683 141.488 80.804C142.147 81.0396 142.933 81.1575 143.844 81.1575C144.316 81.1575 144.779 81.0946 145.235 80.9689C145.706 80.8275 146.138 80.6311 146.531 80.3798C146.924 80.1127 147.261 79.7985 147.544 79.4371C147.843 79.0601 148.055 78.6359 148.18 78.1645H155.085C155.085 78.6359 154.983 79.1779 154.779 79.7906C154.575 80.3876 154.261 81.0004 153.836 81.6288C153.428 82.2415 152.909 82.8464 152.281 83.4434C151.653 84.0404 150.906 84.5746 150.042 85.0459C149.178 85.5015 148.196 85.8707 147.096 86.1535C146.012 86.4363 144.803 86.5777 143.467 86.5777C141.755 86.5777 140.152 86.3264 138.66 85.8236ZM139.838 65.9571C139.32 66.4128 138.887 67.0176 138.542 67.7717C138.212 68.5259 138.047 69.4685 138.047 70.5997H148.487C148.487 69.4685 148.314 68.5259 147.968 67.7717C147.638 67.0176 147.214 66.4206 146.696 65.9807C146.193 65.5251 145.635 65.2109 145.023 65.038C144.41 64.8495 143.821 64.7552 143.255 64.7552C142.705 64.7552 142.124 64.8495 141.511 65.038C140.898 65.2109 140.341 65.5172 139.838 65.9571ZM159.893 60.1127H177.167V65.5329H166.562V85.8H159.893V60.1127ZM197.811 85.8V70.3169H197.694L188.62 85.8H181.338V60.1127H188.008V75.9493H188.102L197.458 60.1127H204.457V85.8H197.811ZM221.378 80.8747C222.148 80.8747 222.815 80.7254 223.381 80.4269C223.946 80.1127 224.418 79.7278 224.795 79.2722C225.172 78.8165 225.447 78.3295 225.62 77.811C225.808 77.2926 225.903 76.8212 225.903 76.3971H232.855C232.855 76.8212 232.776 77.3711 232.619 78.0467C232.478 78.7223 232.234 79.4371 231.888 80.1912C231.543 80.9454 231.079 81.7073 230.498 82.4772C229.932 83.2313 229.218 83.9147 228.353 84.5275C227.505 85.1245 226.507 85.6115 225.36 85.9886C224.214 86.3814 222.886 86.5777 221.378 86.5777C219.414 86.5777 217.678 86.2792 216.17 85.6822C214.677 85.0852 213.42 84.2132 212.399 83.0663C211.393 81.9037 210.624 80.474 210.089 78.7773C209.571 77.0805 209.312 75.1402 209.312 72.9564C209.312 70.7725 209.595 68.8401 210.16 67.159C210.741 65.4622 211.558 64.0404 212.611 62.8935C213.664 61.7309 214.928 60.8511 216.405 60.2541C217.898 59.657 219.555 59.3585 221.378 59.3585C222.163 59.3585 222.972 59.4214 223.805 59.5471C224.653 59.6728 225.486 59.8927 226.303 60.2069C227.12 60.5054 227.898 60.8982 228.636 61.3853C229.39 61.8723 230.058 62.485 230.639 63.2234C231.236 63.9461 231.723 64.8024 232.1 65.7922C232.493 66.7662 232.745 67.8974 232.855 69.1857H225.903C225.777 68.5102 225.604 67.921 225.384 67.4183C225.164 66.8998 224.873 66.4677 224.512 66.1221C224.166 65.7607 223.734 65.4937 223.216 65.3208C222.713 65.1323 222.1 65.038 221.378 65.038C220.262 65.038 219.367 65.2973 218.691 65.8157C218.031 66.3342 217.521 66.9862 217.159 67.7717C216.798 68.5573 216.555 69.4135 216.429 70.3405C216.319 71.2674 216.264 72.1394 216.264 72.9564C216.264 73.8047 216.311 74.7003 216.405 75.6429C216.5 76.5699 216.719 77.4261 217.065 78.2117C217.411 78.9815 217.921 79.6178 218.597 80.1205C219.272 80.6233 220.199 80.8747 221.378 80.8747ZM257.694 60.1127V65.5329H249.917V85.8H243.271V65.5329H235.494V60.1127H257.694ZM271.221 60.419C271.833 60.0577 272.509 59.7906 273.247 59.6178C274.002 59.4449 274.85 59.3585 275.793 59.3585C276.578 59.3585 277.387 59.4528 278.22 59.6413C279.053 59.8299 279.862 60.1362 280.647 60.5604C281.449 60.9689 282.203 61.5109 282.91 62.1865C283.617 62.8464 284.237 63.6633 284.771 64.6374C285.306 65.6115 285.73 66.7505 286.044 68.0545C286.358 69.3428 286.515 70.8197 286.515 72.485C286.515 74.5589 286.288 76.4599 285.832 78.1881C285.392 79.9163 284.716 81.401 283.805 82.6422C282.91 83.8833 281.771 84.8495 280.388 85.5408C279.021 86.2321 277.411 86.5777 275.557 86.5777C274.913 86.5777 274.261 86.5149 273.601 86.3892C272.941 86.2635 272.297 86.0514 271.668 85.7529C271.04 85.4544 270.443 85.0538 269.877 84.551C269.328 84.0326 268.841 83.3884 268.416 82.6186H268.322V95.7451H261.653V60.1127H268.016V63.789H268.11C268.566 63.0192 269.045 62.3593 269.548 61.8094C270.05 61.2439 270.608 60.7804 271.221 60.419ZM270.16 79.4607C270.584 79.8849 271.095 80.2305 271.692 80.4976C272.289 80.749 272.996 80.8747 273.813 80.8747C274.63 80.8747 275.337 80.749 275.934 80.4976C276.531 80.2305 277.042 79.8849 277.466 79.4607C277.89 79.0365 278.236 78.5495 278.503 77.9996C278.786 77.4497 279.005 76.8841 279.163 76.3028C279.32 75.7058 279.422 75.1245 279.469 74.5589C279.532 73.9776 279.563 73.4434 279.563 72.9564C279.563 72.0608 279.461 71.1575 279.257 70.2462C279.053 69.335 278.723 68.518 278.267 67.7953C277.827 67.0726 277.238 66.4834 276.5 66.0278C275.761 65.5722 274.866 65.3444 273.813 65.3444C272.745 65.3444 271.841 65.5722 271.103 66.0278C270.38 66.4834 269.791 67.0726 269.335 67.7953C268.895 68.518 268.573 69.335 268.369 70.2462C268.165 71.1575 268.063 72.0608 268.063 72.9564C268.063 73.4434 268.086 73.9776 268.134 74.5589C268.196 75.1245 268.306 75.7058 268.463 76.3028C268.621 76.8841 268.833 77.4497 269.1 77.9996C269.383 78.5495 269.736 79.0365 270.16 79.4607ZM303.082 69.7749C303.318 69.7435 303.57 69.6963 303.837 69.6335C304.119 69.5706 304.379 69.4685 304.614 69.3271C304.85 69.17 305.046 68.9658 305.203 68.7144C305.361 68.4473 305.439 68.0938 305.439 67.6539C305.439 67.2297 305.368 66.8448 305.227 66.4992C305.101 66.1378 304.881 65.8314 304.567 65.5801C304.253 65.313 303.829 65.1087 303.295 64.9673C302.776 64.8259 302.124 64.7552 301.339 64.7552C300.443 64.7552 299.72 64.8495 299.17 65.038C298.636 65.2109 298.212 65.4622 297.898 65.7922C297.584 66.1064 297.356 66.4834 297.214 66.9234C297.073 67.3476 296.971 67.8032 296.908 68.2902H290.239C290.239 67.976 290.286 67.5439 290.38 66.9941C290.49 66.4285 290.679 65.8157 290.946 65.1559C291.229 64.496 291.614 63.8283 292.101 63.1527C292.603 62.4772 293.255 61.8644 294.057 61.3146C294.874 60.749 295.863 60.2855 297.026 59.9241C298.189 59.5628 299.579 59.3742 301.197 59.3585C303.491 59.3585 305.345 59.5942 306.759 60.0655C308.189 60.5211 309.296 61.126 310.082 61.8801C310.883 62.6186 311.417 63.4512 311.684 64.3782C311.967 65.2894 312.108 66.2007 312.108 67.1119V80.7333C312.108 81.5031 312.148 82.1394 312.226 82.6422C312.321 83.1292 312.438 83.522 312.58 83.8205C312.721 84.1033 312.878 84.3154 313.051 84.4568C313.24 84.5825 313.436 84.6767 313.64 84.7396V85.8H306.264C306.138 85.5015 305.997 85.1088 305.84 84.6217C305.698 84.119 305.628 83.5141 305.628 82.8071C305.109 83.3413 304.599 83.8362 304.096 84.2918C303.609 84.7474 303.059 85.148 302.446 85.4937C301.833 85.8236 301.126 86.0828 300.325 86.2714C299.524 86.4756 298.558 86.5777 297.427 86.5777C296.28 86.5777 295.219 86.4049 294.245 86.0593C293.287 85.7293 292.454 85.2345 291.747 84.5746C291.04 83.9147 290.49 83.0899 290.097 82.1001C289.705 81.1103 289.508 79.9634 289.508 78.6594C289.508 77.6068 289.673 76.6327 290.003 75.7372C290.333 74.826 290.797 74.0326 291.394 73.357C292.006 72.6657 292.745 72.1001 293.609 71.6602C294.489 71.2046 295.471 70.8982 296.555 70.7411L303.082 69.7749ZM298.228 81.6524C298.636 81.778 299.076 81.8409 299.548 81.8409C299.799 81.8409 300.121 81.8173 300.514 81.7702C300.907 81.7073 301.323 81.5974 301.763 81.4403C302.203 81.2832 302.643 81.0711 303.082 80.804C303.522 80.5212 303.915 80.1598 304.261 79.7199C304.606 79.28 304.889 78.7458 305.109 78.1174C305.329 77.4733 305.439 76.7191 305.439 75.855V73.2627C305.031 73.4827 304.622 73.6869 304.214 73.8754C303.805 74.0483 303.263 74.1975 302.588 74.3232L300.82 74.6531C300.05 74.7945 299.375 74.9595 298.793 75.148C298.212 75.3366 297.725 75.5879 297.332 75.9022C296.955 76.2007 296.665 76.5699 296.46 77.0098C296.272 77.4497 296.178 77.9996 296.178 78.6594C296.178 79.2093 296.264 79.6885 296.437 80.097C296.61 80.4898 296.845 80.8197 297.144 81.0868C297.458 81.3381 297.819 81.5267 298.228 81.6524ZM341.331 80.4033H344.465V91.9744H338.291V85.8H318.212V60.1127H324.881V80.4033H334.685V60.1127H341.331V80.4033ZM364.19 85.8V70.3169H364.072L354.999 85.8H347.717V60.1127H354.387V75.9493H354.481L363.837 60.1127H370.836V85.8H364.19ZM378.283 75.7372C378.534 75.3758 378.88 75.0616 379.32 74.7945C379.76 74.5275 380.349 74.2839 381.087 74.064C380.852 74.0011 380.585 73.9147 380.286 73.8047C380.003 73.6791 379.697 73.522 379.367 73.3334C379.053 73.1292 378.731 72.8778 378.401 72.5793C378.087 72.2651 377.788 71.8802 377.505 71.4245C377.301 71.126 377.136 70.8118 377.01 70.4819C376.9 70.1362 376.814 69.8063 376.751 69.4921C376.688 69.1622 376.649 68.8558 376.633 68.573C376.618 68.2902 376.61 68.0467 376.61 67.8424C376.61 66.9312 376.72 66.1221 376.94 65.4151C377.16 64.6924 377.442 64.064 377.788 63.5298C378.134 62.9956 378.526 62.54 378.966 62.1629C379.406 61.7859 379.854 61.4795 380.31 61.2439C380.812 60.9611 381.37 60.749 381.983 60.6076C382.596 60.4504 383.193 60.3405 383.774 60.2776C384.355 60.1991 384.897 60.1519 385.4 60.1362C385.903 60.1205 386.295 60.1127 386.578 60.1127H400.388V85.8H393.695V76.3499H389.336C388.377 76.3499 387.552 76.3892 386.861 76.4678C386.186 76.5306 385.628 76.6956 385.188 76.9626C384.748 77.214 384.41 77.5911 384.175 78.0938C383.955 78.5966 383.829 79.28 383.797 80.1441L383.703 82.6186C383.672 82.9799 383.625 83.4513 383.562 84.0326C383.515 84.6139 383.365 85.203 383.114 85.8H376.068C376.272 85.4544 376.437 85.1245 376.563 84.8103C376.688 84.4803 376.783 84.1661 376.845 83.8676C376.924 83.5534 376.979 83.2392 377.01 82.9249C377.057 82.6107 377.097 82.2808 377.128 81.9352L377.458 78.848C377.537 78.1567 377.631 77.5597 377.741 77.0569C377.851 76.5542 378.032 76.1143 378.283 75.7372ZM384.033 70.2698C384.3 70.694 384.646 71.0082 385.07 71.2124C385.51 71.4167 385.997 71.5345 386.531 71.5659C387.065 71.5974 387.599 71.6131 388.134 71.6131H393.695V65.1323H388.322C387.757 65.1323 387.191 65.148 386.625 65.1794C386.06 65.2109 385.549 65.3366 385.094 65.5565C384.654 65.7607 384.292 66.0907 384.01 66.5463C383.742 66.9862 383.609 67.6146 383.609 68.4316C383.609 69.2329 383.75 69.8456 384.033 70.2698Z" fill="white"/>
</svg>
