<svg width="907" height="171" viewBox="0 0 907 171" fill="none" xmlns="http://www.w3.org/2000/svg">
<path d="M36.8706 28.3167C38.535 28.3807 40.2955 28.6208 42.152 29.0369C44.0405 29.421 45.929 30.0452 47.8175 30.9094C49.738 31.7736 51.4665 33.006 53.0029 34.6064C54.5393 36.1748 55.7876 38.1913 56.7479 40.656C57.7081 43.0886 58.1882 46.0974 58.1882 49.6824C58.1882 53.2353 57.7081 56.2281 56.7479 58.6607C55.7876 61.0934 54.5553 63.1099 53.0509 64.7103C51.5785 66.2788 49.9301 67.4951 48.1056 68.3593C46.2811 69.1915 44.5046 69.8157 42.7762 70.2318C41.0797 70.6159 39.5113 70.84 38.0709 70.904C36.6626 70.968 35.6223 71 34.9501 71H0.524995V0.421337H51.8986V12.5685H15.2649V28.2207H32.7895C33.8458 28.2207 35.2062 28.2527 36.8706 28.3167ZM15.2649 58.8048H31.2051C32.5495 58.8048 33.9258 58.7087 35.3342 58.5167C36.7746 58.3246 38.0869 57.9085 39.2712 57.2684C40.4876 56.6282 41.4798 55.6839 42.248 54.4356C43.0162 53.1553 43.4003 51.4588 43.4003 49.3463C43.4003 47.1377 43.0162 45.4092 42.248 44.1609C41.5118 42.8806 40.5356 41.9203 39.3193 41.2801C38.1029 40.64 36.7266 40.2399 35.1902 40.0798C33.6858 39.9198 32.1654 39.8398 30.629 39.8398H15.2649V58.8048ZM82.0025 70.5199C78.7057 69.1435 75.8889 67.223 73.5523 64.7583C71.2477 62.2937 69.4712 59.3649 68.2229 55.972C67.0066 52.5791 66.3984 48.8661 66.3984 44.8331C66.3984 40.8 67.0066 37.087 68.2229 33.6941C69.4712 30.3012 71.2477 27.3885 73.5523 24.9558C75.8889 22.4912 78.7057 20.5707 82.0025 19.1943C85.2994 17.8179 89.0124 17.1298 93.1415 17.1298C97.3346 17.1298 101.08 17.8179 104.376 19.1943C107.705 20.5707 110.506 22.4912 112.779 24.9558C115.083 27.3885 116.844 30.3012 118.06 33.6941C119.276 37.087 119.885 40.8 119.885 44.8331C119.885 48.8661 119.276 52.5791 118.06 55.972C116.844 59.3649 115.083 62.2937 112.779 64.7583C110.506 67.223 107.705 69.1435 104.376 70.5199C101.08 71.8962 97.3346 72.5844 93.1415 72.5844C89.0124 72.5844 85.2994 71.8962 82.0025 70.5199ZM81.2343 50.6906C81.6505 52.6431 82.3546 54.3876 83.3469 55.924C84.3392 57.4284 85.6355 58.6447 87.2359 59.573C88.8364 60.5012 90.8049 60.9653 93.1415 60.9653C95.5741 60.9653 97.5907 60.5172 99.1911 59.621C100.824 58.6927 102.12 57.4924 103.08 56.02C104.04 54.5156 104.713 52.8032 105.097 50.8827C105.513 48.9302 105.721 46.9136 105.721 44.8331C105.721 42.7845 105.513 40.784 105.097 38.8315C104.713 36.879 104.04 35.1665 103.08 33.6941C102.12 32.1897 100.824 30.9894 99.1911 30.0932C97.5907 29.1649 95.5741 28.7008 93.1415 28.7008C90.8049 28.7008 88.8364 29.1649 87.2359 30.0932C85.6355 31.0214 84.3392 32.2538 83.3469 33.7902C82.3546 35.2946 81.6344 37.023 81.1863 38.9755C80.7702 40.896 80.5622 42.8486 80.5622 44.8331C80.5622 46.8176 80.7862 48.7701 81.2343 50.6906ZM163.288 48.5781H143.315V71H129.727V18.6662H143.315V37.5832H163.288V18.6662H176.828V71H163.288V48.5781ZM211.397 57.2204L222.104 18.6662H236.651L218.647 70.1358C217.622 73.1446 216.694 75.7533 215.862 77.9618C215.03 80.2024 214.198 82.1229 213.365 83.7234C212.565 85.3558 211.701 86.6841 210.773 87.7084C209.876 88.7647 208.82 89.5969 207.604 90.2051C206.387 90.8132 204.963 91.2293 203.331 91.4534C201.698 91.7095 199.762 91.8375 197.521 91.8375C196.625 91.8375 195.777 91.8055 194.976 91.7415C194.208 91.7095 193.28 91.6455 192.192 91.5494V80.5545C192.736 80.6185 193.408 80.6826 194.208 80.7466C195.008 80.8106 195.681 80.8426 196.225 80.8426C197.665 80.8426 198.881 80.5705 199.874 80.0264C200.866 79.4822 201.65 78.8261 202.226 78.0579C202.834 77.3217 203.267 76.5535 203.523 75.7533C203.779 74.953 203.907 74.2809 203.907 73.7367L184.75 18.6662H199.97L211.205 57.2204H211.397ZM266.035 60.9653C267.604 60.9653 268.964 60.6613 270.116 60.0531C271.269 59.4129 272.229 58.6287 272.997 57.7005C273.765 56.7722 274.325 55.78 274.678 54.7237C275.062 53.6674 275.254 52.7072 275.254 51.8429H289.417C289.417 52.7072 289.257 53.8275 288.937 55.2038C288.649 56.5802 288.153 58.0366 287.449 59.573C286.745 61.1094 285.8 62.6618 284.616 64.2302C283.464 65.7666 282.007 67.159 280.247 68.4073C278.519 69.6236 276.486 70.6159 274.149 71.3841C271.813 72.1843 269.108 72.5844 266.035 72.5844C262.034 72.5844 258.497 71.9763 255.424 70.7599C252.384 69.5436 249.823 67.7671 247.742 65.4305C245.694 63.0619 244.125 60.1491 243.037 56.6922C241.981 53.2353 241.453 49.2823 241.453 44.8331C241.453 40.3839 242.029 36.4469 243.181 33.022C244.365 29.565 246.03 26.6683 248.174 24.3317C250.319 21.963 252.896 20.1706 255.905 18.9542C258.945 17.7379 262.322 17.1298 266.035 17.1298C267.636 17.1298 269.284 17.2578 270.981 17.5139C272.709 17.7699 274.405 18.218 276.07 18.8582C277.734 19.4664 279.319 20.2666 280.823 21.2588C282.36 22.2511 283.72 23.4994 284.904 25.0038C286.121 26.4762 287.113 28.2207 287.881 30.2372C288.681 32.2217 289.193 34.5264 289.417 37.151H275.254C274.998 35.7747 274.645 34.5744 274.197 33.5501C273.749 32.4938 273.157 31.6136 272.421 30.9094C271.717 30.1732 270.836 29.6291 269.78 29.277C268.756 28.8929 267.508 28.7008 266.035 28.7008C263.763 28.7008 261.938 29.229 260.562 30.2852C259.217 31.3415 258.177 32.6699 257.441 34.2703C256.705 35.8707 256.209 37.6152 255.953 39.5037C255.728 41.3922 255.616 43.1686 255.616 44.8331C255.616 46.5615 255.712 48.386 255.905 50.3065C256.097 52.195 256.545 53.9395 257.249 55.5399C257.953 57.1083 258.993 58.4047 260.37 59.4289C261.746 60.4532 263.635 60.9653 266.035 60.9653ZM369.263 71H334.933V83.5793H322.162V60.0051H327.587C328.868 57.6045 329.924 55.0918 330.756 52.4671C331.621 49.8104 332.309 47.1377 332.821 44.449C333.333 41.7603 333.701 39.1356 333.925 36.5749C334.149 33.9822 334.309 31.5496 334.405 29.277C334.501 27.0044 334.533 24.9558 334.501 23.1313C334.501 21.3069 334.517 19.8185 334.549 18.6662H375.456V60.0051H382.034V83.5793H369.263V71ZM343.336 54.8197C342.76 56.6762 342.055 58.4047 341.223 60.0051H361.917V29.7091H346.36C346.36 30.6693 346.344 31.8536 346.312 33.262C346.312 34.6704 346.248 36.2388 346.12 37.9673C346.024 39.6637 345.864 41.4722 345.64 43.3927C345.448 45.3132 345.144 47.2337 344.728 49.1542C344.344 51.0747 343.88 52.9632 343.336 54.8197ZM402.055 70.5199C398.758 69.1435 395.942 67.223 393.605 64.7583C391.3 62.2937 389.524 59.3649 388.276 55.972C387.059 52.5791 386.451 48.8661 386.451 44.8331C386.451 40.8 387.059 37.087 388.276 33.6941C389.524 30.3012 391.3 27.3885 393.605 24.9558C395.942 22.4912 398.758 20.5707 402.055 19.1943C405.352 17.8179 409.065 17.1298 413.194 17.1298C417.387 17.1298 421.132 17.8179 424.429 19.1943C427.758 20.5707 430.559 22.4912 432.831 24.9558C435.136 27.3885 436.896 30.3012 438.113 33.6941C439.329 37.087 439.937 40.8 439.937 44.8331C439.937 48.8661 439.329 52.5791 438.113 55.972C436.896 59.3649 435.136 62.2937 432.831 64.7583C430.559 67.223 427.758 69.1435 424.429 70.5199C421.132 71.8962 417.387 72.5844 413.194 72.5844C409.065 72.5844 405.352 71.8962 402.055 70.5199ZM401.287 50.6906C401.703 52.6431 402.407 54.3876 403.4 55.924C404.392 57.4284 405.688 58.6447 407.289 59.573C408.889 60.5012 410.857 60.9653 413.194 60.9653C415.627 60.9653 417.643 60.5172 419.244 59.621C420.876 58.6927 422.172 57.4924 423.133 56.02C424.093 54.5156 424.765 52.8032 425.149 50.8827C425.565 48.9302 425.773 46.9136 425.773 44.8331C425.773 42.7845 425.565 40.784 425.149 38.8315C424.765 36.879 424.093 35.1665 423.133 33.6941C422.172 32.1897 420.876 30.9894 419.244 30.0932C417.643 29.1649 415.627 28.7008 413.194 28.7008C410.857 28.7008 408.889 29.1649 407.289 30.0932C405.688 31.0214 404.392 32.2538 403.4 33.7902C402.407 35.2946 401.687 37.023 401.239 38.9755C400.823 40.896 400.615 42.8486 400.615 44.8331C400.615 46.8176 400.839 48.7701 401.287 50.6906ZM75.2328 146.578H55.2595V169H41.6719V116.666H55.2595V135.583H75.2328V116.666H88.7724V169H75.2328V146.578ZM114.267 168.52C110.97 167.144 108.153 165.223 105.817 162.758C103.512 160.294 101.736 157.365 100.487 153.972C99.2711 150.579 98.663 146.866 98.663 142.833C98.663 138.8 99.2711 135.087 100.487 131.694C101.736 128.301 103.512 125.388 105.817 122.956C108.153 120.491 110.97 118.571 114.267 117.194C117.564 115.818 121.277 115.13 125.406 115.13C129.599 115.13 133.344 115.818 136.641 117.194C139.97 118.571 142.771 120.491 145.043 122.956C147.348 125.388 149.108 128.301 150.325 131.694C151.541 135.087 152.149 138.8 152.149 142.833C152.149 146.866 151.541 150.579 150.325 153.972C149.108 157.365 147.348 160.294 145.043 162.758C142.771 165.223 139.97 167.144 136.641 168.52C133.344 169.896 129.599 170.584 125.406 170.584C121.277 170.584 117.564 169.896 114.267 168.52ZM113.499 148.691C113.915 150.643 114.619 152.388 115.611 153.924C116.604 155.428 117.9 156.645 119.5 157.573C121.101 158.501 123.069 158.965 125.406 158.965C127.839 158.965 129.855 158.517 131.456 157.621C133.088 156.693 134.384 155.492 135.345 154.02C136.305 152.516 136.977 150.803 137.361 148.883C137.777 146.93 137.985 144.914 137.985 142.833C137.985 140.785 137.777 138.784 137.361 136.831C136.977 134.879 136.305 133.167 135.345 131.694C134.384 130.19 133.088 128.989 131.456 128.093C129.855 127.165 127.839 126.701 125.406 126.701C123.069 126.701 121.101 127.165 119.5 128.093C117.9 129.021 116.604 130.254 115.611 131.79C114.619 133.295 113.899 135.023 113.451 136.976C113.035 138.896 112.827 140.849 112.827 142.833C112.827 144.818 113.051 146.77 113.499 148.691ZM191.712 169H162.376V116.666H189.455C191.856 116.666 194.16 116.874 196.369 117.29C198.609 117.706 200.578 118.443 202.274 119.499C203.971 120.523 205.315 121.932 206.307 123.724C207.332 125.484 207.844 127.725 207.844 130.446C207.844 132.014 207.668 133.375 207.316 134.527C206.996 135.679 206.548 136.671 205.971 137.504C205.395 138.304 204.723 138.992 203.955 139.568C203.219 140.112 202.45 140.576 201.65 140.961C204.275 141.889 206.275 143.377 207.652 145.426C209.028 147.442 209.716 149.859 209.716 152.676C209.716 155.14 209.284 157.381 208.42 159.397C207.588 161.382 206.387 163.094 204.819 164.535C203.283 165.943 201.394 167.047 199.154 167.848C196.945 168.616 194.464 169 191.712 169ZM190.655 146.578C189.471 146.386 188.063 146.29 186.43 146.29H175.963V159.349H186.43C188.383 159.349 189.951 159.141 191.135 158.725C192.352 158.309 193.28 157.781 193.92 157.141C194.592 156.501 195.024 155.797 195.217 155.028C195.441 154.26 195.553 153.54 195.553 152.868C195.553 151.587 195.377 150.531 195.024 149.699C194.704 148.835 194.176 148.146 193.44 147.634C192.736 147.122 191.808 146.77 190.655 146.578ZM192.72 135.775C193.296 135.327 193.696 134.767 193.92 134.095C194.176 133.391 194.304 132.574 194.304 131.646C194.304 130.878 194.176 130.174 193.92 129.534C193.696 128.861 193.296 128.301 192.72 127.853C192.144 127.373 191.375 127.005 190.415 126.749C189.455 126.461 188.255 126.317 186.814 126.317H175.963V137.216H186.43C187.967 137.216 189.247 137.104 190.271 136.88C191.295 136.623 192.112 136.255 192.72 135.775ZM255.28 135.871C257.809 136.543 259.954 137.584 261.714 138.992C263.475 140.4 264.819 142.193 265.747 144.369C266.675 146.514 267.14 149.059 267.14 152.004C267.14 154.66 266.755 156.933 265.987 158.821C265.219 160.71 264.227 162.294 263.01 163.575C261.826 164.823 260.498 165.815 259.025 166.551C257.553 167.256 256.113 167.8 254.704 168.184C253.296 168.536 251.984 168.76 250.767 168.856C249.583 168.952 248.671 169 248.03 169H220.663V116.666H234.251V134.863H246.59C249.823 134.863 252.72 135.199 255.28 135.871ZM286.729 116.666V169H273.141V116.666H286.729ZM243.037 145.09H234.251V158.773H244.189C245.246 158.773 246.286 158.693 247.31 158.533C248.367 158.341 249.311 158.005 250.143 157.525C251.007 157.013 251.695 156.325 252.208 155.46C252.72 154.564 252.976 153.412 252.976 152.004C252.976 150.627 252.704 149.491 252.16 148.595C251.647 147.698 250.927 146.994 249.999 146.482C249.103 145.97 248.046 145.618 246.83 145.426C245.646 145.202 244.382 145.09 243.037 145.09ZM337.862 116.666H357.691V169H344.92V126.893H344.728L334.885 169H322.498L312.704 126.893H312.464V169H299.692V116.666H320.146L328.98 154.644H329.22L337.862 116.666ZM450.644 169H432.927L417.563 146.914L412.09 152.436V169H398.502V116.666H412.09V136.543L431.679 116.666H449.732L428.126 138.416L450.644 169ZM478.539 127.709L478.251 137.456C478.091 142.929 477.739 147.73 477.195 151.859C476.651 155.989 475.755 159.445 474.506 162.23C473.29 164.983 471.626 167.063 469.513 168.472C467.432 169.88 464.76 170.584 461.495 170.584C459.959 170.584 458.614 170.488 457.462 170.296C456.31 170.136 455.365 169.896 454.629 169.576V158.197C455.077 158.389 455.637 158.565 456.31 158.725C457.014 158.885 457.862 158.965 458.854 158.965C459.879 158.965 460.791 158.661 461.591 158.053C462.391 157.413 463.079 156.277 463.656 154.644C464.232 152.98 464.68 150.691 465 147.778C465.32 144.866 465.528 141.105 465.624 136.495L466.008 116.666H508.115V169H494.576V127.709H478.539ZM555.936 169V137.456H555.696L537.211 169H522.375V116.666H535.963V148.931H536.155L555.216 116.666H569.475V169H555.936ZM593.962 169.048C590.889 167.992 588.2 166.343 585.896 164.103C583.623 161.83 581.831 158.901 580.518 155.316C579.206 151.731 578.55 147.378 578.55 142.257C578.55 138.704 579.014 135.295 579.942 132.03C580.902 128.733 582.375 125.837 584.359 123.34C586.376 120.843 588.937 118.859 592.041 117.386C595.178 115.882 598.939 115.13 603.324 115.13C607.966 115.13 611.871 115.898 615.04 117.434C618.208 118.939 620.753 121.083 622.674 123.868C624.626 126.653 626.018 130.014 626.851 133.951C627.683 137.888 628.099 142.257 628.099 147.058H592.233C592.233 147.538 592.281 148.178 592.378 148.979C592.474 149.779 592.666 150.643 592.954 151.571C593.242 152.5 593.658 153.444 594.202 154.404C594.746 155.332 595.466 156.181 596.363 156.949C597.291 157.717 598.411 158.341 599.723 158.821C601.068 159.301 602.668 159.541 604.525 159.541C605.485 159.541 606.429 159.413 607.357 159.157C608.318 158.869 609.198 158.469 609.998 157.957C610.798 157.413 611.487 156.773 612.063 156.037C612.671 155.268 613.103 154.404 613.359 153.444H627.427C627.427 154.404 627.219 155.508 626.803 156.757C626.387 157.973 625.746 159.221 624.882 160.502C624.05 161.75 622.994 162.982 621.713 164.199C620.433 165.415 618.913 166.503 617.152 167.464C615.392 168.392 613.391 169.144 611.15 169.72C608.942 170.296 606.477 170.584 603.757 170.584C600.268 170.584 597.003 170.072 593.962 169.048ZM596.363 128.573C595.306 129.502 594.426 130.734 593.722 132.27C593.05 133.807 592.714 135.727 592.714 138.032H613.983C613.983 135.727 613.631 133.807 612.927 132.27C612.255 130.734 611.391 129.518 610.334 128.621C609.31 127.693 608.174 127.053 606.925 126.701C605.677 126.317 604.477 126.125 603.324 126.125C602.204 126.125 601.02 126.317 599.771 126.701C598.523 127.053 597.387 127.677 596.363 128.573ZM670.782 146.578H650.809V169H637.221V116.666H650.809V135.583H670.782V116.666H684.322V169H670.782V146.578ZM738.048 116.666V127.709H722.204V169H708.664V127.709H692.82V116.666H738.048ZM770.409 136.351C770.889 136.287 771.401 136.191 771.945 136.063C772.521 135.935 773.049 135.727 773.529 135.439C774.01 135.119 774.41 134.703 774.73 134.191C775.05 133.647 775.21 132.926 775.21 132.03C775.21 131.166 775.066 130.382 774.778 129.678C774.522 128.941 774.074 128.317 773.433 127.805C772.793 127.261 771.929 126.845 770.841 126.557C769.784 126.269 768.456 126.125 766.856 126.125C765.031 126.125 763.559 126.317 762.439 126.701C761.35 127.053 760.486 127.565 759.846 128.237C759.206 128.877 758.742 129.646 758.453 130.542C758.165 131.406 757.957 132.334 757.829 133.327H744.242C744.242 132.686 744.338 131.806 744.53 130.686C744.754 129.534 745.138 128.285 745.682 126.941C746.258 125.597 747.042 124.236 748.035 122.86C749.059 121.483 750.387 120.235 752.02 119.115C753.684 117.963 755.701 117.018 758.069 116.282C760.438 115.546 763.271 115.162 766.568 115.13C771.241 115.13 775.018 115.61 777.899 116.57C780.811 117.498 783.068 118.731 784.668 120.267C786.301 121.772 787.389 123.468 787.933 125.356C788.509 127.213 788.798 129.069 788.798 130.926V158.677C788.798 160.246 788.878 161.542 789.038 162.566C789.23 163.559 789.47 164.359 789.758 164.967C790.046 165.543 790.366 165.975 790.718 166.263C791.102 166.519 791.502 166.711 791.918 166.839V169H776.89C776.634 168.392 776.346 167.592 776.026 166.599C775.738 165.575 775.594 164.343 775.594 162.902C774.538 163.991 773.497 164.999 772.473 165.927C771.481 166.855 770.361 167.672 769.112 168.376C767.864 169.048 766.424 169.576 764.791 169.96C763.159 170.376 761.19 170.584 758.886 170.584C756.549 170.584 754.388 170.232 752.404 169.528C750.451 168.856 748.755 167.848 747.315 166.503C745.874 165.159 744.754 163.479 743.954 161.462C743.153 159.445 742.753 157.109 742.753 154.452C742.753 152.308 743.089 150.323 743.762 148.499C744.434 146.642 745.378 145.026 746.594 143.649C747.843 142.241 749.347 141.089 751.108 140.192C752.9 139.264 754.901 138.64 757.109 138.32L770.409 136.351ZM760.518 160.55C761.35 160.806 762.246 160.934 763.207 160.934C763.719 160.934 764.375 160.886 765.175 160.79C765.975 160.662 766.824 160.438 767.72 160.118C768.616 159.798 769.512 159.365 770.409 158.821C771.305 158.245 772.105 157.509 772.809 156.613C773.513 155.716 774.09 154.628 774.538 153.348C774.986 152.036 775.21 150.499 775.21 148.739V143.457C774.378 143.905 773.545 144.321 772.713 144.706C771.881 145.058 770.777 145.362 769.4 145.618L765.799 146.29C764.231 146.578 762.855 146.914 761.67 147.298C760.486 147.682 759.494 148.194 758.694 148.835C757.925 149.443 757.333 150.195 756.917 151.091C756.533 151.988 756.341 153.108 756.341 154.452C756.341 155.572 756.517 156.549 756.869 157.381C757.221 158.181 757.701 158.853 758.309 159.397C758.95 159.91 759.686 160.294 760.518 160.55ZM839.403 116.666H859.232V169H846.461V126.893H846.269L836.426 169H824.039L814.244 126.893H814.004V169H801.233V116.666H821.686L830.52 154.644H830.761L839.403 116.666Z" fill="white"/>
<path d="M504.85 15.5453C503.218 13.5928 500.881 12.6166 497.84 12.6166C493.679 12.6166 490.847 14.169 489.342 17.2738C488.478 19.0663 487.966 21.915 487.806 25.8201H474.506C474.73 19.8985 475.803 15.1132 477.723 11.4643C481.372 4.51842 487.854 1.0455 497.168 1.0455C504.53 1.0455 510.388 3.09404 514.741 7.19113C519.094 11.2562 521.271 16.6496 521.271 23.3714C521.271 28.5248 519.734 33.102 516.661 37.103C514.645 39.7597 511.332 42.7205 506.723 45.9854L501.249 49.8744C497.824 52.3071 495.472 54.0675 494.192 55.1558C492.943 56.2441 491.887 57.5084 491.023 58.9488H521.415V71H473.738C473.866 66.0067 474.938 61.4455 476.955 57.3164C478.907 52.6752 483.517 47.7619 490.783 42.5765C497.088 38.0633 501.169 34.8304 503.026 32.8779C505.875 29.8371 507.299 26.5082 507.299 22.8913C507.299 19.9465 506.483 17.4979 504.85 15.5453ZM552.479 72.7285C543.613 72.7285 537.387 69.6236 533.802 63.414C530.249 57.2044 528.473 48.354 528.473 36.863C528.473 25.3719 530.249 16.5056 533.802 10.2639C537.387 4.02229 543.613 0.901464 552.479 0.901464C561.345 0.901464 567.571 4.02229 571.156 10.2639C574.709 16.5056 576.485 25.3719 576.485 36.863C576.485 48.354 574.693 57.2044 571.108 63.414C567.555 69.6236 561.345 72.7285 552.479 72.7285ZM560.497 55.2038C561.745 50.9787 562.37 44.8651 562.37 36.863C562.37 28.4768 561.729 22.2671 560.449 18.234C559.201 14.201 556.544 12.1844 552.479 12.1844C548.414 12.1844 545.725 14.201 544.413 18.234C543.1 22.2671 542.444 28.4768 542.444 36.863C542.444 44.8651 543.1 50.9947 544.413 55.2518C545.725 59.477 548.414 61.5895 552.479 61.5895C556.544 61.5895 559.217 59.4609 560.497 55.2038ZM607.213 72.7285C598.347 72.7285 592.121 69.6236 588.536 63.414C584.984 57.2044 583.207 48.354 583.207 36.863C583.207 25.3719 584.984 16.5056 588.536 10.2639C592.121 4.02229 598.347 0.901464 607.213 0.901464C616.08 0.901464 622.305 4.02229 625.89 10.2639C629.443 16.5056 631.22 25.3719 631.22 36.863C631.22 48.354 629.427 57.2044 625.842 63.414C622.289 69.6236 616.08 72.7285 607.213 72.7285ZM615.232 55.2038C616.48 50.9787 617.104 44.8651 617.104 36.863C617.104 28.4768 616.464 22.2671 615.184 18.234C613.935 14.201 611.279 12.1844 607.213 12.1844C603.148 12.1844 600.46 14.201 599.147 18.234C597.835 22.2671 597.179 28.4768 597.179 36.863C597.179 44.8651 597.835 50.9947 599.147 55.2518C600.46 59.477 603.148 61.5895 607.213 61.5895C611.279 61.5895 613.951 59.4609 615.232 55.2038ZM689.315 72.7285C680.449 72.7285 674.223 69.6236 670.638 63.414C667.085 57.2044 665.309 48.354 665.309 36.863C665.309 25.3719 667.085 16.5056 670.638 10.2639C674.223 4.02229 680.449 0.901464 689.315 0.901464C698.181 0.901464 704.407 4.02229 707.992 10.2639C711.545 16.5056 713.321 25.3719 713.321 36.863C713.321 48.354 711.529 57.2044 707.944 63.414C704.391 69.6236 698.181 72.7285 689.315 72.7285ZM697.333 55.2038C698.582 50.9787 699.206 44.8651 699.206 36.863C699.206 28.4768 698.566 22.2671 697.285 18.234C696.037 14.201 693.38 12.1844 689.315 12.1844C685.25 12.1844 682.561 14.201 681.249 18.234C679.937 22.2671 679.28 28.4768 679.28 36.863C679.28 44.8651 679.937 50.9947 681.249 55.2518C682.561 59.477 685.25 61.5895 689.315 61.5895C693.38 61.5895 696.053 59.4609 697.333 55.2038ZM744.05 72.7285C735.183 72.7285 728.958 69.6236 725.373 63.414C721.82 57.2044 720.043 48.354 720.043 36.863C720.043 25.3719 721.82 16.5056 725.373 10.2639C728.958 4.02229 735.183 0.901464 744.05 0.901464C752.916 0.901464 759.142 4.02229 762.727 10.2639C766.279 16.5056 768.056 25.3719 768.056 36.863C768.056 48.354 766.263 57.2044 762.679 63.414C759.126 69.6236 752.916 72.7285 744.05 72.7285ZM752.068 55.2038C753.316 50.9787 753.94 44.8651 753.94 36.863C753.94 28.4768 753.3 22.2671 752.02 18.234C750.771 14.201 748.115 12.1844 744.05 12.1844C739.985 12.1844 737.296 14.201 735.983 18.234C734.671 22.2671 734.015 28.4768 734.015 36.863C734.015 44.8651 734.671 50.9947 735.983 55.2518C737.296 59.477 739.985 61.5895 744.05 61.5895C748.115 61.5895 750.787 59.4609 752.068 55.2038ZM798.784 72.7285C789.918 72.7285 783.692 69.6236 780.107 63.414C776.554 57.2044 774.778 48.354 774.778 36.863C774.778 25.3719 776.554 16.5056 780.107 10.2639C783.692 4.02229 789.918 0.901464 798.784 0.901464C807.65 0.901464 813.876 4.02229 817.461 10.2639C821.014 16.5056 822.79 25.3719 822.79 36.863C822.79 48.354 820.998 57.2044 817.413 63.414C813.86 69.6236 807.65 72.7285 798.784 72.7285ZM806.802 55.2038C808.051 50.9787 808.675 44.8651 808.675 36.863C808.675 28.4768 808.035 22.2671 806.754 18.234C805.506 14.201 802.849 12.1844 798.784 12.1844C794.719 12.1844 792.03 14.201 790.718 18.234C789.406 22.2671 788.749 28.4768 788.749 36.863C788.749 44.8651 789.406 50.9947 790.718 55.2518C792.03 59.477 794.719 61.5895 798.784 61.5895C802.849 61.5895 805.522 59.4609 806.802 55.2038ZM887.848 33.6461V71H874.452V33.6461H856.159V21.5469H906.14V33.6461H887.848ZM906.14 14.249H856.159V2.14979H906.14V14.249Z" fill="#E80024"/>
</svg>
