<svg width="654" height="109" viewBox="0 0 654 109" fill="none" xmlns="http://www.w3.org/2000/svg">
<g clip-path="url(#clip0_6_1091)">
<path d="M637.373 0H16.6271C7.44421 0 0 7.44421 0 16.6271V92.3729C0 101.556 7.44421 109 16.6271 109H637.373C646.556 109 654 101.556 654 92.3729V16.6271C654 7.44421 646.556 0 637.373 0Z" fill="#E80024"/>
<path d="M38.6026 93.8176C37.8651 94.216 37.0218 94.3749 36.1898 94.2721H20.2333C18.5115 94.2721 17.8206 93.522 18.1753 92.02L31.065 36.9491C31.7195 34.1909 32.7221 31.527 34.0486 29.0217C35.3902 26.4508 37.168 24.1323 39.3028 22.1695C41.5826 20.0992 44.2318 18.4766 47.112 17.3864C50.4774 16.1334 54.0483 15.5236 57.6388 15.5888H91.8168C92.7165 15.5888 93.267 15.7237 93.4666 15.9897C93.6661 16.2558 93.6162 17.0114 93.3188 18.2861L90.3499 30.9874C90.2412 31.7174 89.9244 32.4005 89.4373 32.9549C88.9156 33.3341 88.275 33.5132 87.6323 33.4593H59.8724C58.5974 33.4198 57.327 33.6307 56.1331 34.08C55.2429 34.4143 54.4319 34.9303 53.7518 35.595C53.1709 36.1811 52.7042 36.8702 52.3754 37.6272C52.0589 38.3523 51.8072 39.1041 51.6235 39.8737L49.9996 46.8423H79.5589C80.4586 46.8423 81.0018 46.9975 81.1957 47.2894C81.3897 47.5813 81.3325 48.3831 81.0332 49.6523L78.2934 61.3356C77.8925 63.0574 76.9799 63.922 75.5555 63.922H45.9961L39.4192 92.0182C39.3206 92.6822 39.0384 93.3054 38.6045 93.8176" fill="white"/>
<path d="M160.801 54.8159C159.474 60.69 157.459 66.387 154.797 71.7885C152.452 76.5708 149.291 80.9068 145.454 84.6006C141.686 88.156 137.235 90.9078 132.37 92.6888C126.894 94.6383 121.113 95.5894 115.302 95.4969C110.114 95.6632 104.95 94.7255 100.152 92.7461C96.3578 91.1125 93.1774 88.3202 91.0666 84.7688C88.9167 80.8532 87.7614 76.4694 87.7024 72.0028C87.5631 66.2885 88.1982 60.5815 89.5905 55.0376C90.9141 49.2054 93.0097 43.5758 95.822 38.2978C98.358 33.5063 101.654 29.1576 105.582 25.421C109.348 21.8793 113.759 19.094 118.575 17.2165C123.701 15.2629 129.149 14.2927 134.633 14.3566C139.823 14.1806 144.988 15.1573 149.755 17.2165C153.572 18.9548 156.785 21.7913 158.983 25.3638C161.217 29.2542 162.449 33.6393 162.567 38.1242C162.759 43.7438 162.164 49.3609 160.801 54.8159ZM138.4 54.9286C138.991 52.1666 139.401 49.3692 139.629 46.5541C139.866 44.239 139.711 41.9005 139.169 39.6372C138.72 37.8025 137.682 36.1658 136.213 34.9779C134.435 33.7155 132.28 33.0989 130.103 33.2302C127.946 33.225 125.828 33.8089 123.977 34.9188C122.001 36.1046 120.267 37.6528 118.865 39.482C117.282 41.5364 115.964 43.7821 114.943 46.1661C113.809 48.7395 112.919 51.4134 112.283 54.1527C111.54 57.2171 111.036 60.3345 110.775 63.4768C110.538 65.8344 110.745 68.2154 111.383 70.4972C111.893 72.2829 112.99 73.8448 114.496 74.931C116.297 76.0729 118.41 76.6245 120.539 76.5088C122.854 76.5506 125.135 75.9453 127.125 74.7611C129.106 73.5473 130.819 71.9424 132.16 70.0445C133.681 67.9086 134.923 65.5866 135.855 63.135C136.897 60.4621 137.747 57.7177 138.397 54.9231" fill="white"/>
<path d="M306.192 51.3353C307.937 52.1235 309.485 53.2903 310.724 54.7513C311.845 56.1206 312.701 57.6869 313.247 59.3699C313.787 61.077 314.049 62.8597 314.023 64.6499C314.012 66.4849 313.793 68.3127 313.369 70.0981C312.556 73.63 311.069 76.9716 308.989 79.9395C306.911 82.8969 304.347 85.4805 301.405 87.5806C298.399 89.7365 295.071 91.4049 291.545 92.5244C287.906 93.691 284.107 94.2783 280.285 94.2647H251.064C247.985 94.2647 246.134 93.6846 245.512 92.5244C244.865 90.6892 244.857 88.6888 245.492 86.849L260.44 23.0082C260.812 20.9517 261.728 19.0323 263.093 17.4492C263.982 16.7339 265.004 16.2011 266.1 15.8812C267.196 15.5614 268.344 15.4608 269.479 15.5851H298.708C301.802 15.5539 304.887 15.9322 307.882 16.7102C310.409 17.3425 312.745 18.5773 314.69 20.3091C316.501 22.0094 317.784 24.1952 318.385 26.6052C319.053 29.6517 318.966 32.8152 318.132 35.8204C317.352 38.9487 315.864 41.8561 313.783 44.3187C311.748 46.9056 309.222 49.0648 306.349 50.6721L306.192 51.3353ZM276.633 44.5902H288.364C289.9 44.5747 291.41 44.1887 292.765 43.4651C293.543 42.9929 294.209 42.3549 294.713 41.5966C295.218 40.8383 295.549 39.9782 295.684 39.0774C295.914 38.4232 295.981 37.7226 295.878 37.0366C295.775 36.3507 295.506 35.7003 295.094 35.1423C294.602 34.6597 294.011 34.2894 293.362 34.0569C292.713 33.8244 292.021 33.7353 291.335 33.7955H279.16L276.633 44.5902ZM291.782 68.6441C292.061 67.7566 292.142 66.819 292.02 65.8967C291.899 64.9745 291.577 64.0899 291.078 63.305C290.458 62.5598 289.663 61.9794 288.764 61.6152C287.866 61.251 286.891 61.1143 285.927 61.2174H272.74L269.291 75.9453H282.478C283.796 75.9754 285.106 75.7463 286.336 75.271C287.362 74.8462 288.301 74.2363 289.107 73.4715C289.826 72.7865 290.43 71.9891 290.893 71.1105C291.29 70.3244 291.593 69.4948 291.798 68.6386" fill="white"/>
<path d="M373.283 94.2702H338.548C334.946 94.4427 331.352 93.7893 328.04 92.36C325.751 91.2914 323.844 89.5457 322.579 87.3589C321.433 85.2353 320.848 82.8548 320.878 80.442C320.873 77.9062 321.164 75.3785 321.744 72.9099L330.163 36.9473C330.817 34.1896 331.82 31.5264 333.147 29.0217C334.49 26.452 336.267 24.1333 338.399 22.1677C340.68 20.0985 343.33 18.4766 346.21 17.3864C349.578 16.1321 353.151 15.5217 356.744 15.587H389.9C390.806 15.587 391.349 15.7237 391.55 15.9879C391.752 16.2521 391.698 17.0169 391.408 18.2861L388.452 30.9948C388.34 31.7237 388.019 32.4045 387.528 32.955C387.01 33.3358 386.371 33.5151 385.731 33.4593H358.97C357.695 33.4198 356.425 33.6313 355.231 34.0819C354.34 34.4174 353.529 34.9352 352.85 35.6024C352.268 36.183 351.8 36.868 351.471 37.6216C351.159 38.3481 350.908 39.0996 350.721 39.8681L349.613 44.5921H379.747C380.645 44.5921 381.19 44.7473 381.384 45.0392C381.562 45.828 381.503 46.6518 381.216 47.4076L378.485 59.0946C378.077 60.8165 377.166 61.6811 375.742 61.6811H345.615L343.647 70.1129C343.334 71.2093 343.237 72.3565 343.363 73.49C343.447 74.2049 343.793 74.8632 344.335 75.3375C344.901 75.7708 345.574 76.0433 346.282 76.1264C347.164 76.2407 348.053 76.295 348.942 76.2889H377.495C378.394 76.2889 378.938 76.4238 379.145 76.6898C379.351 76.9559 379.3 77.717 379.002 78.9862L376.026 91.6949C375.625 93.4167 374.7 94.2813 373.283 94.2813" fill="white"/>
<path d="M457.418 33.4611H438.2L424.514 91.9092C424.406 92.5861 424.123 93.2229 423.692 93.7566C422.959 94.1889 422.104 94.3662 421.259 94.261H405.297C403.573 94.261 402.9 93.474 403.278 91.8999L416.949 33.4501H398.177C396.605 33.4501 396.017 32.5891 396.424 30.8636L399.363 18.2861C399.455 17.4248 399.824 16.6167 400.416 15.9842C401.014 15.6734 401.688 15.5365 402.36 15.5888H461.604C462.218 15.5121 462.84 15.6519 463.363 15.9842C463.64 16.2484 463.627 17.0114 463.329 18.2861L460.381 30.8784C460.307 31.6037 459.961 32.2741 459.413 32.7541C458.864 33.2342 458.154 33.4882 457.425 33.4648" fill="white"/>
<path d="M192.455 51.6734L182.848 91.9092C182.741 92.5875 182.456 93.2252 182.021 93.7566C181.291 94.1903 180.437 94.3678 179.595 94.261H163.637C161.909 94.261 161.235 93.4777 161.604 91.8999L177.703 24.4677C178.099 21.8125 179.301 19.3428 181.145 17.392C183.168 16.0259 185.598 15.3917 188.03 15.5944H193.872C194.837 15.5853 195.801 15.6415 196.758 15.7625C197.505 15.8593 198.228 16.0895 198.893 16.4424C199.571 16.8147 200.159 17.3312 200.615 17.9554C201.233 18.8036 201.77 19.7072 202.221 20.6546L212.554 44.7048L218.042 58.4166H218.833L228.486 17.9573C228.599 17.2749 228.889 16.634 229.327 16.0987C230.054 15.6652 230.905 15.4876 231.745 15.5944H247.709C249.431 15.5944 250.111 16.3832 249.728 17.9554L233.637 85.3876C233.133 87.721 232.074 89.8985 230.55 91.7355C229.601 92.6589 228.462 93.3637 227.212 93.8006C225.962 94.2375 224.632 94.3959 223.315 94.2647H217.472C216.526 94.2737 215.581 94.2175 214.643 94.0965C213.875 94.0083 213.13 93.7804 212.445 93.4241C211.757 93.0425 211.153 92.5252 210.671 91.9036C210.033 91.0789 209.51 90.1708 209.117 89.2045L198.906 65.6106L193.246 51.6734H192.455Z" fill="white"/>
<path d="M454.249 93.9598L440.349 93.9321C440.031 93.9316 439.718 93.8597 439.432 93.7217C439.145 93.5836 438.894 93.383 438.696 93.1347C438.498 92.8863 438.358 92.5966 438.287 92.2869C438.216 91.9773 438.215 91.6556 438.285 91.3457L441.59 76.6639C441.694 76.1918 441.956 75.7694 442.334 75.4669C442.711 75.1644 443.18 75.0001 443.663 75.0012L457.564 75.0289C457.881 75.0294 458.195 75.1013 458.481 75.2394C458.767 75.3774 459.019 75.578 459.217 75.8264C459.415 76.0747 459.555 76.3645 459.626 76.6741C459.697 76.9838 459.697 77.3055 459.627 77.6154L456.322 92.3045C456.217 92.7751 455.954 93.1957 455.577 93.4966C455.2 93.7976 454.732 93.961 454.249 93.9598Z" fill="white"/>
<path d="M488.479 15.5223H506.656C506.923 15.5225 507.187 15.5829 507.428 15.6992C507.669 15.8154 507.881 15.9845 508.047 16.1938C508.214 16.4031 508.331 16.6473 508.39 16.9081C508.449 17.169 508.449 17.4398 508.389 17.7005L501.514 47.4834L535.496 15.9953C535.825 15.691 536.257 15.5221 536.705 15.5223H557.248C557.608 15.5223 557.96 15.6315 558.256 15.8354C558.553 16.0392 558.781 16.3283 558.909 16.6643C559.038 17.0003 559.062 17.3675 558.978 17.7175C558.894 18.0674 558.706 18.3835 558.438 18.6242L525.221 48.5161C524.94 48.7692 524.746 49.1055 524.669 49.4759C524.592 49.8463 524.635 50.2317 524.792 50.576L543.568 91.7743C543.692 92.0452 543.746 92.3429 543.724 92.64C543.703 92.9371 543.607 93.2242 543.446 93.4747C543.285 93.7252 543.064 93.9312 542.802 94.0738C542.541 94.2163 542.247 94.2909 541.949 94.2905H519.654C519.31 94.2907 518.974 94.1911 518.685 94.0039C518.397 93.8167 518.169 93.5498 518.029 93.2356L505.451 65.0342L495.419 73.902C495.413 73.9082 495.409 73.9158 495.406 73.9242L491.026 92.9031C490.935 93.2952 490.715 93.6449 490.4 93.8952C490.084 94.1455 489.694 94.2816 489.291 94.2813H471.116C470.849 94.2815 470.584 94.2213 470.343 94.1052C470.102 93.989 469.89 93.8199 469.724 93.6105C469.557 93.4011 469.44 93.1568 469.381 92.8958C469.322 92.6348 469.323 92.3638 469.383 92.1031L486.746 16.9005C486.836 16.5086 487.056 16.1589 487.371 15.9086C487.686 15.6583 488.076 15.5221 488.479 15.5223Z" fill="white"/>
<path d="M552.624 78.0403L601.951 33.9729H566.05C565.782 33.9731 565.517 33.9129 565.276 33.7966C565.035 33.6804 564.823 33.5112 564.656 33.3016C564.489 33.092 564.372 32.8475 564.313 32.5863C564.254 32.325 564.255 32.0538 564.315 31.7929L567.755 16.9005C567.846 16.5086 568.067 16.1591 568.382 15.9088C568.697 15.6586 569.087 15.5224 569.49 15.5223H634.136C634.403 15.5225 634.667 15.5829 634.908 15.6992C635.149 15.8154 635.361 15.9845 635.527 16.1938C635.694 16.4031 635.811 16.6473 635.87 16.9081C635.929 17.169 635.929 17.4398 635.869 17.7005L632.835 30.8359C632.751 31.1938 632.557 31.5166 632.281 31.7596L582.954 75.8289H620.212C620.479 75.8287 620.744 75.8889 620.985 76.0052C621.226 76.1214 621.438 76.2906 621.605 76.5002C621.772 76.7098 621.889 76.9543 621.948 77.2155C622.007 77.4768 622.007 77.748 621.946 78.0089L618.508 92.9031C618.418 93.2952 618.197 93.6449 617.882 93.8952C617.567 94.1455 617.176 94.2816 616.773 94.2813H550.777C550.509 94.2815 550.245 94.2213 550.004 94.1052C549.763 93.989 549.551 93.8199 549.385 93.6105C549.218 93.4011 549.101 93.1568 549.042 92.8958C548.983 92.6348 548.983 92.3638 549.044 92.1031L552.076 78.9659C552.159 78.6082 552.35 78.2849 552.624 78.0403Z" fill="white"/>
</g>
<defs>
<clipPath id="clip0_6_1091">
<rect width="654" height="109" fill="white"/>
</clipPath>
</defs>
</svg>
